<svg xmlns="http://www.w3.org/2000/svg" width="1024" height="1024" viewBox="0 0 1024 1024">
<g>
<path d="M 425.50 691.00 C424.72,692.27 378.00,692.37 378.00,691.11 C378.00,689.42 380.71,689.19 397.09,689.46 C425.95,689.94 426.15,689.96 425.50,691.00 ZM 645.82 688.75 L 645.50 691.50 L 621.75 691.77 C606.13,691.94 598.00,691.69 598.00,691.02 C598.00,690.37 604.56,689.98 616.25,689.96 C634.85,689.91 643.15,689.05 643.80,687.09 C644.56,684.83 646.12,686.11 645.82,688.75 ZM 799.00 365.00 C799.00,373.67 798.62,379.00 798.00,379.00 C797.38,379.00 797.00,373.67 797.00,365.00 C797.00,356.33 797.38,351.00 798.00,351.00 C798.62,351.00 799.00,356.33 799.00,365.00 ZM 522.83 82.93 C521.36,82.97 519.56,83.13 518.83,83.30 C517.14,83.68 497.16,82.49 498.50,82.09 C500.64,81.46 522.14,81.53 523.77,82.17 C525.07,82.69 524.84,82.88 522.83,82.93 ZM 406.49 360.02 C406.15,360.56 403.58,361.00 400.77,361.00 C394.35,361.00 395.21,359.88 402.00,359.40 C405.14,359.18 406.86,359.42 406.49,360.02 ZM 423.00 634.50 C423.00,636.42 422.55,638.00 422.00,638.00 C421.45,638.00 421.00,636.42 421.00,634.50 C421.00,632.58 421.45,631.00 422.00,631.00 C422.55,631.00 423.00,632.58 423.00,634.50 ZM 424.00 650.50 C424.00,652.42 423.55,654.00 423.00,654.00 C422.45,654.00 422.00,652.42 422.00,650.50 C422.00,648.58 422.45,647.00 423.00,647.00 C423.55,647.00 424.00,648.58 424.00,650.50 ZM 426.00 682.50 C426.00,684.42 425.55,686.00 425.00,686.00 C424.45,686.00 424.00,684.42 424.00,682.50 C424.00,680.58 424.45,679.00 425.00,679.00 C425.55,679.00 426.00,680.58 426.00,682.50 ZM 225.94 374.75 C225.97,377.64 225.81,380.00 225.58,380.00 C224.52,380.00 224.03,374.13 224.90,371.94 C225.72,369.87 225.88,370.31 225.94,374.75 ZM 495.50 132.00 C495.16,132.55 493.56,133.00 491.94,133.00 C490.32,133.00 489.00,132.55 489.00,132.00 C489.00,131.45 490.60,131.00 492.56,131.00 C494.68,131.00 495.87,131.40 495.50,132.00 ZM 225.91 351.25 C226.00,355.97 225.42,357.26 224.41,354.62 C224.12,353.86 224.32,351.73 224.85,349.87 L 225.82 346.50 ZM 649.00 643.00 C649.00,644.65 648.55,646.00 648.00,646.00 C647.45,646.00 647.00,644.65 647.00,643.00 C647.00,641.35 647.45,640.00 648.00,640.00 C648.55,640.00 649.00,641.35 649.00,643.00 ZM 648.00 659.00 C648.00,660.65 647.55,662.00 647.00,662.00 C646.45,662.00 646.00,660.65 646.00,659.00 C646.00,657.35 646.45,656.00 647.00,656.00 C647.55,656.00 648.00,657.35 648.00,659.00 ZM 425.00 666.00 C425.00,667.65 424.55,669.00 424.00,669.00 C423.45,669.00 423.00,667.65 423.00,666.00 C423.00,664.35 423.45,663.00 424.00,663.00 C424.55,663.00 425.00,664.35 425.00,666.00 ZM 599.94 676.25 C599.97,678.86 599.82,681.00 599.61,681.00 C598.59,681.00 598.11,675.90 598.94,673.83 C599.72,671.88 599.88,672.27 599.94,676.25 ZM 600.92 658.75 C601.00,663.08 600.39,664.18 599.37,661.53 C599.06,660.73 599.27,658.81 599.83,657.28 C600.80,654.62 600.85,654.68 600.92,658.75 ZM 798.00 340.50 C798.00,341.88 797.55,343.00 797.00,343.00 C796.45,343.00 796.00,341.88 796.00,340.50 C796.00,339.12 796.45,338.00 797.00,338.00 C797.55,338.00 798.00,339.12 798.00,340.50 ZM 276.00 386.50 C276.00,387.88 275.55,389.00 275.00,389.00 C274.45,389.00 274.00,387.88 274.00,386.50 C274.00,385.12 274.45,384.00 275.00,384.00 C275.55,384.00 276.00,385.12 276.00,386.50 ZM 601.91 639.75 C601.96,642.09 601.82,644.00 601.61,644.00 C600.57,644.00 600.22,640.87 600.98,638.33 C601.77,635.71 601.83,635.81 601.91,639.75 ZM 375.97 645.25 C375.99,647.31 375.83,649.00 375.62,649.00 C374.65,649.00 374.19,644.48 375.02,643.08 C375.70,641.91 375.95,642.48 375.97,645.25 ZM 378.97 685.25 C378.99,687.31 378.83,689.00 378.62,689.00 C377.65,689.00 377.19,684.48 378.02,683.08 C378.70,681.91 378.95,682.48 378.97,685.25 ZM 226.97 391.25 C226.99,393.31 226.83,395.00 226.62,395.00 C225.65,395.00 225.19,390.48 226.02,389.08 C226.70,387.91 226.95,388.48 226.97,391.25 ZM 602.94 624.25 C602.97,626.31 602.82,628.00 602.61,628.00 C601.56,628.00 601.16,624.75 601.97,622.75 C602.75,620.80 602.88,620.99 602.94,624.25 ZM 748.97 346.75 C749.00,350.31 748.55,350.87 747.61,348.41 C747.27,347.54 747.43,346.08 747.97,345.16 C748.74,343.84 748.95,344.16 748.97,346.75 ZM 378.00 671.80 C378.00,675.54 377.47,675.92 376.65,672.77 C376.33,671.54 376.50,670.10 377.03,669.57 C377.66,668.94 378.00,669.74 378.00,671.80 ZM 548.50 84.00 C548.85,84.57 547.99,85.00 546.50,85.00 C545.01,85.00 544.15,84.57 544.50,84.00 C544.84,83.45 545.74,83.00 546.50,83.00 C547.26,83.00 548.16,83.45 548.50,84.00 ZM 488.50 83.00 C488.85,83.57 487.99,84.00 486.50,84.00 C485.01,84.00 484.15,83.57 484.50,83.00 C484.84,82.45 485.74,82.00 486.50,82.00 C487.26,82.00 488.16,82.45 488.50,83.00 ZM 798.00 391.00 C798.00,392.10 797.55,393.00 797.00,393.00 C796.45,393.00 796.00,392.10 796.00,391.00 C796.00,389.90 796.45,389.00 797.00,389.00 C797.55,389.00 798.00,389.90 798.00,391.00 ZM 228.00 400.30 C228.00,403.38 227.50,403.75 226.57,401.33 C226.22,400.42 226.40,399.20 226.97,398.63 C227.68,397.92 228.00,398.44 228.00,400.30 ZM 748.00 337.30 C748.00,340.38 747.50,340.75 746.57,338.33 C746.22,337.42 746.40,336.20 746.97,335.63 C747.68,334.92 748.00,335.44 748.00,337.30 ZM 748.97 385.25 C749.00,388.13 748.54,388.68 747.50,387.01 C747.17,386.46 747.35,385.22 747.92,384.26 C748.79,382.75 748.94,382.89 748.97,385.25 ZM 484.50 133.00 C484.16,133.55 483.23,134.00 482.44,134.00 C481.65,134.00 481.00,133.55 481.00,133.00 C481.00,132.45 481.93,132.00 483.06,132.00 C484.19,132.00 484.84,132.45 484.50,133.00 ZM 226.93 336.25 C226.97,337.76 226.55,339.00 226.00,339.00 C224.83,339.00 224.83,338.23 226.00,335.50 C226.76,333.73 226.87,333.81 226.93,336.25 ZM 377.00 657.80 C377.00,660.21 376.48,660.59 375.45,658.91 C375.08,658.31 375.28,657.32 375.89,656.71 C376.70,655.90 377.00,656.18 377.00,657.80 ZM 746.60 329.27 C746.94,329.60 747.02,330.44 746.79,331.14 C746.45,332.15 746.21,332.15 745.58,331.13 C744.75,329.78 745.59,328.25 746.60,329.27 Z" fill="rgb(15,60,74)"/>
<path d="M 522.83 82.93 C524.84,82.88 525.07,82.69 523.77,82.17 C523.75,82.17 523.72,82.16 523.70,82.15 C527.21,82.31 530.52,82.53 533.46,82.81 C539.49,83.39 544.82,83.61 545.31,83.31 C545.34,83.29 545.38,83.27 545.43,83.25 C545.03,83.44 544.68,83.70 544.50,84.00 C544.15,84.57 545.01,85.00 546.50,85.00 C547.99,85.00 548.85,84.57 548.50,84.00 C548.45,83.92 548.38,83.84 548.31,83.76 L 548.35 83.77 C549.53,84.33 554.33,85.35 559.00,86.03 C563.67,86.72 572.67,88.53 578.98,90.06 C585.29,91.58 590.86,92.59 591.34,92.29 C591.83,91.99 592.53,92.24 592.91,92.85 C593.28,93.45 594.69,94.07 596.04,94.23 C597.39,94.38 598.72,94.74 599.00,95.03 C599.59,95.65 611.06,99.42 612.50,99.47 C613.05,99.49 613.72,99.75 614.00,100.06 C614.80,100.96 626.11,105.33 627.62,105.33 C628.38,105.33 629.00,105.63 629.00,105.98 C629.00,106.76 640.18,111.55 641.25,111.23 C641.66,111.10 642.00,111.48 642.00,112.06 C642.00,112.64 642.41,112.86 642.91,112.55 C643.42,112.24 643.98,112.34 644.16,112.78 C644.73,114.12 653.70,118.97 654.37,118.30 C654.72,117.95 655.00,118.27 655.00,119.00 C655.00,119.73 655.26,120.07 655.58,119.75 C655.91,119.43 656.92,119.81 657.83,120.59 C658.75,121.37 659.74,121.90 660.02,121.76 C660.31,121.62 661.62,122.50 662.92,123.72 C664.23,124.93 665.64,125.72 666.05,125.47 C666.46,125.22 667.06,125.71 667.39,126.57 C667.72,127.43 668.39,127.88 668.89,127.57 C669.38,127.26 670.06,127.71 670.39,128.57 C670.72,129.43 671.39,129.88 671.89,129.57 C672.38,129.26 673.06,129.71 673.39,130.57 C673.72,131.43 674.39,131.88 674.89,131.57 C675.38,131.26 676.06,131.71 676.39,132.57 C676.72,133.43 677.39,133.88 677.89,133.57 C678.38,133.26 679.06,133.71 679.39,134.57 C679.72,135.43 680.42,135.86 680.94,135.54 C681.47,135.21 682.39,135.87 683.00,137.00 C683.61,138.13 684.51,138.81 685.00,138.50 C685.49,138.19 686.39,138.87 687.00,140.00 C687.61,141.13 688.48,141.82 688.94,141.54 C689.40,141.25 690.53,142.15 691.43,143.54 C692.34,144.93 693.45,145.84 693.88,145.57 C694.32,145.30 695.66,146.41 696.86,148.03 C698.07,149.66 699.43,150.88 699.90,150.74 C700.38,150.61 702.67,152.66 705.00,155.29 C707.34,157.93 709.50,159.83 709.82,159.52 C710.56,158.77 722.00,170.09 722.00,171.56 C722.00,172.19 723.91,174.54 726.25,176.79 C728.59,179.04 731.62,182.27 733.00,183.97 C734.38,185.67 736.29,187.82 737.25,188.75 C738.21,189.68 739.00,191.03 739.00,191.75 C739.00,192.47 739.67,193.32 740.50,193.64 C741.33,193.95 742.00,194.79 742.00,195.50 C742.00,196.21 742.67,197.05 743.50,197.36 C744.33,197.68 745.00,198.63 745.00,199.47 C745.00,200.31 745.45,201.00 746.00,201.00 C746.55,201.00 747.00,201.47 747.00,202.04 C747.00,202.61 747.90,204.05 749.00,205.23 C750.10,206.41 751.56,208.64 752.24,210.19 C752.93,211.73 753.78,213.00 754.14,213.00 C754.49,213.00 755.07,214.12 755.41,215.50 C755.76,216.88 756.48,218.00 757.02,218.00 C757.56,218.00 758.00,218.64 758.00,219.43 C758.00,220.21 758.63,221.49 759.40,222.25 C760.17,223.02 761.80,225.98 763.02,228.83 C764.24,231.67 765.56,234.00 765.94,234.00 C766.69,234.00 770.00,240.50 770.00,241.98 C770.00,242.48 771.76,246.62 773.91,251.19 C776.06,255.76 778.14,260.62 778.54,262.00 C778.95,263.38 780.50,267.20 782.00,270.50 C785.22,277.59 792.31,305.33 794.52,319.50 C795.37,325.00 796.61,332.42 797.27,336.00 C797.39,336.64 797.50,337.48 797.60,338.51 C797.43,338.19 797.23,338.00 797.00,338.00 C796.45,338.00 796.00,339.12 796.00,340.50 C796.00,341.88 796.45,343.00 797.00,343.00 C797.37,343.00 797.69,342.50 797.86,341.77 C798.03,344.41 798.17,347.67 798.26,351.36 C798.18,351.12 798.09,351.00 798.00,351.00 C797.38,351.00 797.00,356.33 797.00,365.00 C797.00,373.67 797.38,379.00 798.00,379.00 C798.10,379.00 798.19,378.87 798.27,378.61 C798.17,382.87 798.00,386.36 797.73,389.64 C797.55,389.25 797.29,389.00 797.00,389.00 C796.45,389.00 796.00,389.90 796.00,391.00 C796.00,392.10 796.45,393.00 797.00,393.00 C797.15,393.00 797.30,392.93 797.43,392.80 C797.10,395.90 796.67,398.97 796.10,402.50 C792.12,427.09 790.31,436.45 789.05,439.00 C788.64,439.83 787.05,445.00 785.51,450.50 C783.97,456.00 782.40,460.95 782.02,461.50 C781.64,462.05 780.28,465.42 779.01,469.00 C777.73,472.58 774.45,480.23 771.72,486.00 C768.99,491.77 765.91,498.44 764.89,500.81 C763.86,503.18 762.34,505.80 761.51,506.63 C760.68,507.46 760.00,508.79 760.00,509.57 C760.00,510.36 759.58,511.00 759.07,511.00 C758.55,511.00 757.82,512.01 757.43,513.25 C757.05,514.49 756.42,515.72 756.05,516.00 C754.75,516.95 749.00,525.86 748.03,528.42 C747.49,529.84 746.59,531.00 746.02,531.00 C745.46,531.00 745.00,531.63 745.00,532.39 C745.00,533.16 744.33,534.05 743.50,534.36 C742.67,534.68 742.00,535.58 742.00,536.36 C742.00,537.15 741.33,538.05 740.50,538.36 C739.67,538.68 739.00,539.57 739.00,540.35 C739.00,541.13 737.88,542.51 736.50,543.41 C735.12,544.31 734.00,545.52 734.00,546.11 C734.00,546.69 732.61,548.60 730.91,550.34 C729.21,552.08 723.14,558.34 717.43,564.25 C711.71,570.16 706.60,575.00 706.06,575.00 C705.53,575.00 703.83,576.58 702.29,578.50 C700.76,580.42 698.95,582.00 698.27,582.00 C697.60,582.00 696.31,583.12 695.41,584.50 C694.51,585.88 693.16,587.00 692.42,587.00 C691.68,587.00 690.59,587.90 690.00,589.00 C689.41,590.10 688.32,591.00 687.57,591.00 C686.83,591.00 685.95,591.67 685.64,592.50 C685.32,593.33 684.37,594.00 683.53,594.00 C682.69,594.00 682.00,594.45 682.00,595.00 C682.00,595.55 681.33,596.00 680.50,596.00 C679.67,596.00 679.00,596.45 679.00,597.00 C679.00,597.55 678.37,598.00 677.61,598.00 C676.84,598.00 675.97,598.63 675.68,599.40 C675.38,600.17 673.53,601.33 671.57,601.98 C669.61,602.62 668.00,603.57 668.00,604.08 C668.00,604.58 667.31,605.00 666.47,605.00 C665.63,605.00 664.68,605.67 664.36,606.50 C664.05,607.33 663.14,608.00 662.35,608.00 C661.55,608.00 660.14,609.35 659.20,610.99 C658.27,612.64 657.18,613.99 656.80,613.99 C655.85,614.00 652.71,621.25 650.72,628.00 C650.11,630.08 649.46,634.62 648.80,641.21 C648.62,640.48 648.33,640.00 648.00,640.00 C647.45,640.00 647.00,641.35 647.00,643.00 C647.00,644.65 647.45,646.00 648.00,646.00 C648.13,646.00 648.26,645.92 648.37,645.78 C648.09,648.99 647.81,652.56 647.53,656.46 C647.37,656.17 647.19,656.00 647.00,656.00 C646.45,656.00 646.00,657.35 646.00,659.00 C646.00,660.65 646.45,662.00 647.00,662.00 C647.05,662.00 647.10,661.99 647.15,661.97 C646.78,667.60 646.42,673.80 646.07,680.50 L 645.73 687.04 C645.38,685.69 644.37,685.40 643.80,687.09 C643.15,689.05 634.85,689.91 616.25,689.96 C606.37,689.98 600.15,690.26 598.47,690.73 L 598.75 682.77 C598.79,681.79 598.82,680.82 598.86,679.86 C599.05,680.55 599.30,681.00 599.61,681.00 C599.82,681.00 599.97,678.86 599.94,676.25 C599.89,672.63 599.75,671.98 599.13,673.37 C599.29,670.00 599.47,666.40 599.69,662.27 C600.52,663.90 600.99,662.60 600.92,658.75 C600.85,654.94 600.80,654.64 600.00,656.81 C600.15,654.26 600.31,651.51 600.48,648.50 C600.58,646.92 600.69,645.04 600.80,643.06 C600.98,643.64 601.25,644.00 601.61,644.00 C601.82,644.00 601.96,642.09 601.91,639.75 C601.84,636.01 601.77,635.73 601.09,637.97 C601.23,635.39 601.37,632.92 601.47,631.00 C601.53,629.83 601.64,628.46 601.77,627.01 C601.96,627.61 602.24,628.00 602.61,628.00 C602.82,628.00 602.97,626.31 602.94,624.25 C602.89,621.57 602.80,620.96 602.33,621.92 C602.69,619.03 603.11,616.19 603.52,614.00 C604.40,609.33 605.20,604.83 605.31,604.00 C605.41,603.17 605.86,602.23 606.30,601.91 C606.74,601.59 607.17,600.35 607.26,599.16 C607.35,597.97 607.81,597.00 608.27,597.00 C608.74,597.00 608.84,596.55 608.50,596.00 C608.16,595.45 608.39,595.00 609.00,595.00 C609.61,595.00 609.86,594.59 609.55,594.09 C609.24,593.58 609.33,593.02 609.74,592.84 C610.57,592.47 616.31,585.00 615.77,585.00 C615.59,585.00 618.98,581.40 623.30,577.00 C627.62,572.60 631.59,569.00 632.11,569.00 C632.64,569.00 633.32,568.33 633.64,567.50 C633.95,566.67 634.82,566.00 635.56,566.00 C636.30,566.00 637.26,565.43 637.70,564.73 C638.14,564.03 639.74,562.91 641.25,562.25 C642.76,561.59 644.00,560.58 644.00,560.02 C644.00,559.46 644.67,559.00 645.50,559.00 C646.33,559.00 647.00,558.55 647.00,558.00 C647.00,557.45 647.61,557.00 648.35,557.00 C649.10,557.00 650.81,555.99 652.16,554.75 C653.50,553.51 655.88,551.83 657.44,551.01 C659.00,550.19 660.94,548.50 661.75,547.26 C662.56,546.02 663.84,545.00 664.58,545.00 C665.32,545.00 666.41,544.10 667.00,543.00 C667.59,541.90 668.48,541.00 668.99,541.00 C670.18,541.00 690.53,520.72 690.25,519.81 C690.13,519.42 691.38,518.15 693.03,516.98 C694.68,515.81 695.80,514.48 695.52,514.03 C695.24,513.59 696.18,512.46 697.60,511.53 C699.01,510.60 699.91,509.58 699.59,509.26 C699.27,508.94 699.92,508.05 701.02,507.27 C702.13,506.50 702.77,505.44 702.46,504.93 C702.14,504.42 702.29,504.00 702.80,504.00 C703.30,504.00 705.36,501.52 707.37,498.50 C709.38,495.48 710.70,493.00 710.32,493.00 C709.93,493.00 710.49,492.34 711.56,491.53 C712.63,490.72 713.14,490.05 712.71,490.03 C712.28,490.01 712.82,489.03 713.93,487.85 C715.03,486.67 715.69,485.32 715.41,484.85 C715.12,484.38 715.26,484.00 715.73,484.00 C716.93,484.00 720.08,478.41 719.31,477.64 C718.95,477.29 719.22,477.00 719.89,477.00 C720.57,477.00 720.84,476.55 720.50,476.00 C720.16,475.45 720.39,475.00 721.00,475.00 C721.61,475.00 721.86,474.59 721.55,474.09 C721.24,473.58 721.38,473.02 721.87,472.84 C722.92,472.44 730.29,458.00 729.44,458.00 C729.12,458.00 729.56,457.29 730.43,456.43 C731.81,455.05 732.22,453.64 731.91,451.36 C731.87,451.01 732.22,450.45 732.70,450.11 C734.09,449.14 737.01,440.83 736.35,439.75 C736.01,439.21 736.23,438.47 736.83,438.10 C738.21,437.25 743.14,419.03 742.34,417.74 C742.01,417.21 742.20,416.49 742.76,416.14 C743.90,415.43 746.84,399.30 747.80,388.51 C747.83,388.19 747.86,387.88 747.88,387.55 C748.65,388.49 749.00,387.75 748.97,385.25 C748.95,383.10 748.82,382.79 748.13,383.90 C748.69,373.81 748.55,360.30 747.85,349.01 C748.62,350.74 749.00,349.99 748.97,346.75 C748.95,344.16 748.74,343.84 747.97,345.16 C747.83,345.39 747.72,345.65 747.64,345.93 C747.47,343.61 747.27,341.41 747.05,339.39 C747.67,340.52 748.00,339.81 748.00,337.30 C748.00,335.44 747.68,334.92 746.97,335.63 C746.84,335.76 746.73,335.93 746.64,336.12 C746.61,335.91 746.58,335.70 746.55,335.50 C746.42,334.62 746.24,333.24 746.04,331.76 C746.36,332.07 746.55,331.86 746.79,331.14 C747.02,330.44 746.94,329.60 746.60,329.27 C746.26,328.93 745.94,328.88 745.70,329.01 C745.65,328.66 745.61,328.32 745.57,328.00 C744.66,320.36 739.72,300.00 738.77,300.00 C738.28,300.00 738.14,299.59 738.44,299.09 C739.13,297.98 733.17,280.75 731.80,279.89 C731.27,279.55 730.85,278.88 730.87,278.39 C730.97,276.32 729.71,273.00 728.83,273.00 C728.31,273.00 728.16,272.55 728.50,272.00 C728.84,271.45 728.64,271.00 728.06,271.00 C727.48,271.00 727.11,270.64 727.25,270.20 C727.64,268.95 722.77,259.00 721.77,259.00 C721.28,259.00 721.16,258.55 721.50,258.00 C721.84,257.45 721.61,257.00 721.00,257.00 C720.39,257.00 720.16,256.55 720.50,256.00 C720.84,255.45 720.61,255.00 720.00,255.00 C719.39,255.00 719.12,254.62 719.41,254.15 C719.69,253.68 719.07,252.38 718.03,251.26 C716.98,250.13 716.39,248.94 716.73,248.61 C717.06,248.27 716.78,248.00 716.11,248.00 C715.43,248.00 715.16,247.55 715.50,246.99 C715.85,246.44 715.43,245.72 714.57,245.39 C713.71,245.06 713.24,244.42 713.53,243.96 C713.81,243.50 713.25,242.66 712.27,242.09 C711.30,241.52 710.84,241.05 711.26,241.03 C712.35,240.99 706.93,233.00 705.81,233.00 C705.30,233.00 705.15,232.57 705.47,232.05 C705.79,231.53 705.13,230.61 704.00,230.00 C702.87,229.39 702.19,228.49 702.50,228.00 C702.81,227.51 702.13,226.61 701.00,226.00 C699.87,225.39 699.20,224.49 699.50,223.99 C699.81,223.50 698.93,222.34 697.54,221.43 C696.15,220.53 695.24,219.41 695.52,218.97 C695.80,218.52 694.68,217.19 693.03,216.02 C691.38,214.85 690.13,213.58 690.24,213.19 C690.52,212.25 669.25,191.00 668.03,191.00 C667.49,191.00 666.31,189.88 665.41,188.50 C664.51,187.12 663.16,186.00 662.42,186.00 C661.68,186.00 660.59,185.10 660.00,184.00 C659.41,182.90 658.26,182.00 657.43,182.00 C656.61,182.00 655.68,181.32 655.36,180.50 C655.05,179.68 654.15,179.00 653.36,179.00 C652.58,179.00 651.68,178.32 651.36,177.50 C651.05,176.68 650.38,176.00 649.89,176.00 C649.40,176.00 648.10,175.10 647.00,174.00 C645.90,172.90 644.33,172.00 643.50,172.00 C642.67,172.00 642.00,171.55 642.00,171.00 C642.00,170.45 641.33,170.00 640.50,170.00 C639.67,170.00 639.00,169.55 639.00,169.00 C639.00,168.45 638.33,168.00 637.50,168.00 C636.67,168.00 636.00,167.58 636.00,167.08 C636.00,166.57 634.42,165.64 632.50,165.00 C630.58,164.36 629.00,163.46 629.00,163.00 C629.00,162.54 627.47,161.65 625.60,161.03 C623.73,160.42 621.18,159.02 619.92,157.93 C618.66,156.84 616.48,155.66 615.07,155.32 C613.65,154.97 609.68,153.20 606.24,151.38 C602.80,149.57 596.73,147.12 592.74,145.94 C588.76,144.76 585.05,143.45 584.50,143.02 C583.95,142.60 581.03,141.69 578.00,140.99 C574.97,140.29 570.92,139.29 569.00,138.77 C552.87,134.36 542.18,132.89 522.00,132.34 C512.79,132.08 503.06,132.26 493.94,132.77 C494.71,132.59 495.31,132.31 495.50,132.00 C495.87,131.40 494.68,131.00 492.56,131.00 C490.60,131.00 489.00,131.45 489.00,132.00 C489.00,132.44 489.86,132.82 491.03,132.95 C488.63,133.11 486.28,133.29 484.00,133.49 C484.22,133.35 484.39,133.18 484.50,133.00 C484.84,132.45 484.19,132.00 483.06,132.00 C481.93,132.00 481.00,132.45 481.00,133.00 C481.00,133.29 481.18,133.55 481.47,133.74 C474.41,134.44 468.19,135.36 463.50,136.46 C445.05,140.79 432.83,144.22 427.00,146.71 C425.08,147.53 422.38,148.67 421.00,149.24 C419.62,149.81 417.15,150.84 415.50,151.53 C406.50,155.28 400.00,158.45 400.00,159.10 C400.00,159.50 397.98,160.61 395.50,161.55 C393.02,162.50 391.00,163.61 391.00,164.03 C391.00,164.44 389.88,165.07 388.50,165.41 C387.12,165.76 386.00,166.48 386.00,167.02 C386.00,167.56 385.33,168.00 384.50,168.00 C383.67,168.00 383.00,168.45 383.00,169.00 C383.00,169.55 382.33,170.00 381.50,170.00 C380.67,170.00 379.10,170.90 378.00,172.00 C376.90,173.10 375.55,174.00 375.00,174.00 C374.45,174.00 374.00,174.45 374.00,175.00 C374.00,175.55 373.31,176.00 372.47,176.00 C371.63,176.00 370.68,176.68 370.36,177.50 C370.05,178.32 369.15,179.00 368.36,179.00 C367.58,179.00 366.68,179.68 366.36,180.50 C366.05,181.32 365.32,182.00 364.76,182.00 C364.19,182.00 362.68,183.01 361.41,184.25 C360.13,185.49 357.60,187.72 355.79,189.21 C348.40,195.29 335.00,208.44 335.00,209.61 C335.00,210.30 333.65,211.83 332.00,213.00 C330.35,214.17 329.00,215.76 329.00,216.53 C329.00,217.30 328.10,218.41 327.00,219.00 C325.90,219.59 325.00,220.63 325.00,221.31 C325.00,222.00 324.21,223.31 323.25,224.24 C319.38,227.98 318.07,229.67 317.08,232.28 C316.52,233.77 315.59,235.00 315.02,235.00 C314.46,235.00 314.00,235.68 314.00,236.50 C314.00,237.32 313.55,238.00 313.00,238.00 C312.45,238.00 312.00,238.68 312.00,239.50 C312.00,240.32 311.56,241.00 311.02,241.00 C310.48,241.00 309.76,242.12 309.41,243.50 C309.07,244.88 308.42,246.00 307.97,246.00 C307.52,246.00 306.64,247.57 306.00,249.50 C305.36,251.43 304.52,253.00 304.13,253.00 C303.50,253.00 296.98,266.09 293.42,274.50 C292.72,276.15 291.44,279.14 290.57,281.15 C289.71,283.16 289.00,285.43 289.00,286.20 C289.00,286.97 288.61,288.03 288.12,288.55 C286.94,289.84 284.33,298.03 282.41,306.52 C275.45,337.33 274.80,343.37 275.43,371.50 C275.55,376.86 275.68,381.32 275.84,385.15 C275.66,384.46 275.35,384.00 275.00,384.00 C274.45,384.00 274.00,385.12 274.00,386.50 C274.00,387.88 274.45,389.00 275.00,389.00 C275.43,389.00 275.80,388.32 275.94,387.36 C276.35,396.08 276.96,401.28 278.02,406.50 C279.14,412.00 280.52,418.98 281.08,422.00 C281.64,425.02 282.53,427.93 283.05,428.45 C283.57,428.97 284.00,430.35 284.00,431.51 C284.00,434.01 287.89,446.09 289.13,447.45 C289.61,447.97 290.00,449.11 290.00,449.99 C290.00,450.86 290.90,453.34 292.00,455.50 C293.10,457.66 294.00,459.82 294.00,460.30 C294.00,461.53 302.04,477.38 302.97,478.00 C303.39,478.27 304.05,479.51 304.43,480.75 C304.82,481.99 305.51,483.00 305.96,483.00 C306.41,483.00 307.07,484.12 307.41,485.50 C307.76,486.88 308.48,488.00 309.02,488.00 C309.56,488.00 310.00,488.53 310.00,489.18 C310.00,490.84 318.04,503.00 319.14,503.00 C319.64,503.00 320.48,504.12 321.00,505.50 C321.52,506.88 322.41,508.00 322.98,508.00 C323.54,508.00 324.00,508.62 324.00,509.38 C324.00,510.15 325.12,511.51 326.50,512.41 C327.88,513.31 329.00,514.63 329.00,515.34 C329.00,516.04 330.35,517.62 332.00,518.84 C333.65,520.06 335.00,521.54 335.00,522.13 C335.00,523.45 352.15,540.59 353.16,540.27 C353.56,540.14 354.85,541.38 356.02,543.03 C357.19,544.68 358.55,545.78 359.03,545.48 C359.51,545.19 360.39,545.87 361.00,547.00 C361.61,548.13 362.51,548.81 363.00,548.50 C363.49,548.19 364.41,548.90 365.03,550.06 C365.65,551.22 366.41,551.93 366.71,551.63 C367.00,551.33 368.08,552.08 369.09,553.29 C370.10,554.51 370.95,555.16 370.97,554.75 C370.99,554.34 371.82,554.79 372.82,555.75 C374.72,557.57 390.12,568.39 391.00,568.52 C392.04,568.68 408.00,585.13 408.00,586.04 C408.00,586.57 408.45,587.00 409.00,587.00 C409.55,587.00 410.00,587.64 410.00,588.42 C410.00,589.20 410.34,589.98 410.75,590.17 C411.76,590.62 415.82,599.27 418.08,605.79 C419.09,608.69 420.59,616.57 421.41,623.29 C421.66,625.30 421.93,627.97 422.21,631.08 C422.14,631.03 422.07,631.00 422.00,631.00 C421.45,631.00 421.00,632.58 421.00,634.50 C421.00,636.42 421.45,638.00 422.00,638.00 C422.28,638.00 422.53,637.59 422.72,636.94 C422.99,640.25 423.26,643.83 423.53,647.53 C423.38,647.20 423.19,647.00 423.00,647.00 C422.45,647.00 422.00,648.58 422.00,650.50 C422.00,652.42 422.45,654.00 423.00,654.00 C423.37,654.00 423.69,653.30 423.86,652.27 C424.12,656.06 424.37,659.90 424.60,663.60 C424.43,663.22 424.22,663.00 424.00,663.00 C423.45,663.00 423.00,664.35 423.00,666.00 C423.00,667.65 423.45,669.00 424.00,669.00 C424.35,669.00 424.66,668.45 424.84,667.62 C425.09,671.93 425.30,675.95 425.46,679.39 C425.32,679.14 425.16,679.00 425.00,679.00 C424.45,679.00 424.00,680.58 424.00,682.50 C424.00,684.42 424.45,686.00 425.00,686.00 C425.26,686.00 425.50,685.65 425.67,685.08 C425.77,688.16 425.76,690.16 425.62,690.55 C425.25,689.94 421.04,689.86 397.09,689.46 C380.71,689.19 378.00,689.42 378.00,691.11 C378.00,691.67 387.37,691.96 397.79,692.00 L 378.00 692.00 L 377.93 689.25 C377.92,688.86 377.91,688.42 377.89,687.95 C378.07,688.58 378.32,689.00 378.62,689.00 C378.83,689.00 378.99,687.31 378.97,685.25 C378.95,682.48 378.70,681.91 378.02,683.08 C377.88,683.30 377.79,683.61 377.72,683.97 C377.57,681.08 377.36,677.66 377.14,674.31 C377.67,675.60 378.00,674.74 378.00,671.80 C378.00,669.74 377.66,668.94 377.03,669.57 C376.95,669.65 376.88,669.75 376.82,669.86 C376.74,668.78 376.66,667.73 376.57,666.75 C376.37,664.26 376.18,661.91 376.00,659.67 C376.67,660.36 377.00,659.74 377.00,657.80 C377.00,656.18 376.70,655.90 375.89,656.71 C375.85,656.75 375.82,656.79 375.78,656.83 C375.57,653.96 375.37,651.27 375.20,648.70 C375.33,648.89 375.47,649.00 375.62,649.00 C375.83,649.00 375.99,647.31 375.97,645.25 C375.95,642.48 375.70,641.91 375.02,643.08 C374.96,643.17 374.91,643.28 374.87,643.39 C374.78,641.85 374.70,640.34 374.62,638.84 C374.12,629.18 370.78,618.93 366.84,614.99 C365.19,613.35 364.18,612.00 364.58,612.00 C364.98,612.00 364.50,611.10 363.50,610.00 C362.50,608.90 361.07,608.00 360.31,608.00 C359.56,608.00 358.68,607.33 358.36,606.50 C358.05,605.67 357.16,605.00 356.39,605.00 C355.63,605.00 355.00,604.56 355.00,604.02 C355.00,603.48 353.88,602.76 352.50,602.41 C351.12,602.07 350.00,601.38 350.00,600.89 C350.00,600.40 349.33,600.00 348.50,600.00 C347.67,600.00 347.00,599.55 347.00,599.00 C347.00,598.45 346.33,598.00 345.50,598.00 C344.67,598.00 344.00,597.55 344.00,597.00 C344.00,596.45 343.33,596.00 342.50,596.00 C341.67,596.00 341.00,595.55 341.00,595.00 C341.00,594.45 340.34,594.00 339.54,594.00 C338.73,594.00 337.59,593.10 337.00,592.00 C336.41,590.90 335.32,590.00 334.57,590.00 C333.83,590.00 332.95,589.33 332.64,588.50 C332.32,587.67 331.43,587.00 330.65,587.00 C329.87,587.00 328.49,585.88 327.59,584.50 C326.69,583.12 325.38,582.00 324.69,582.00 C323.99,582.00 321.73,579.97 319.66,577.50 C317.59,575.03 315.35,573.00 314.67,573.00 C313.13,573.00 299.74,559.59 300.51,558.82 C300.83,558.50 298.93,556.34 296.29,554.00 C293.66,551.67 291.61,549.38 291.74,548.90 C291.88,548.43 290.66,547.07 289.03,545.86 C287.41,544.66 286.30,543.32 286.57,542.88 C286.84,542.45 285.93,541.34 284.54,540.43 C283.15,539.53 282.25,538.40 282.54,537.94 C282.82,537.48 282.13,536.61 281.00,536.00 C279.87,535.39 279.19,534.49 279.50,534.00 C279.81,533.51 279.13,532.61 278.00,532.00 C276.87,531.39 276.21,530.47 276.54,529.94 C276.86,529.42 276.43,528.72 275.57,528.39 C274.71,528.06 274.26,527.38 274.57,526.89 C274.88,526.39 274.43,525.72 273.57,525.39 C272.71,525.06 272.26,524.38 272.57,523.89 C272.88,523.39 272.43,522.72 271.57,522.39 C270.71,522.06 270.23,521.44 270.49,521.02 C270.75,520.60 269.89,519.10 268.59,517.69 C267.28,516.28 266.46,514.87 266.77,514.56 C267.08,514.25 266.78,514.00 266.11,514.00 C265.43,514.00 265.16,513.55 265.50,512.99 C265.85,512.44 265.43,511.72 264.57,511.39 C263.71,511.06 263.26,510.39 263.56,509.90 C263.87,509.40 263.61,509.00 263.00,509.00 C262.39,509.00 262.12,508.62 262.41,508.15 C262.69,507.68 262.07,506.38 261.03,505.26 C259.98,504.13 259.39,502.94 259.73,502.61 C260.06,502.27 259.78,502.00 259.11,502.00 C258.43,502.00 258.16,501.55 258.50,501.00 C258.84,500.45 258.64,500.00 258.06,500.00 C257.48,500.00 257.11,499.64 257.25,499.20 C257.64,497.95 252.77,488.00 251.77,488.00 C251.28,488.00 251.16,487.55 251.50,487.00 C251.84,486.45 251.61,486.00 251.00,486.00 C250.39,486.00 250.16,485.55 250.50,485.00 C250.84,484.45 250.64,484.00 250.06,484.00 C249.48,484.00 249.05,483.66 249.12,483.25 C249.44,481.23 248.88,479.01 247.75,477.82 C247.06,477.09 246.34,475.60 246.15,474.50 C245.96,473.40 245.36,472.22 244.81,471.89 C244.27,471.55 243.90,470.98 243.99,470.62 C244.34,469.21 242.80,464.00 242.03,464.00 C241.59,464.00 241.27,463.44 241.33,462.75 C241.40,462.06 240.02,457.00 238.28,451.50 C233.52,436.43 228.95,416.22 227.09,402.46 C227.68,403.49 228.00,402.76 228.00,400.30 C228.00,398.44 227.68,397.92 226.97,398.63 C226.85,398.75 226.75,398.89 226.67,399.06 C226.59,398.35 226.52,397.66 226.46,397.00 C226.40,396.26 226.34,395.53 226.27,394.80 C226.38,394.93 226.49,395.00 226.62,395.00 C226.83,395.00 226.99,393.31 226.97,391.25 C226.95,388.48 226.70,387.91 226.02,389.08 C225.96,389.18 225.91,389.29 225.86,389.42 C225.63,386.20 225.45,383.01 225.30,379.86 C225.39,379.95 225.48,380.00 225.58,380.00 C225.81,380.00 225.97,377.64 225.94,374.75 C225.89,370.52 225.74,369.92 225.01,371.66 C224.88,366.24 224.87,360.94 224.99,355.77 C225.64,356.56 225.98,354.97 225.91,351.25 L 225.82 346.50 L 225.24 348.50 C225.40,345.27 225.60,342.10 225.85,339.00 C225.90,339.00 225.95,339.00 226.00,339.00 C226.55,339.00 226.97,337.76 226.93,336.25 C226.87,334.06 226.78,333.77 226.21,335.02 C227.06,326.32 228.33,318.14 230.00,310.55 C230.48,308.38 230.62,306.20 230.31,305.69 C230.00,305.19 230.18,304.49 230.72,304.14 C231.73,303.47 236.60,285.44 236.36,283.25 C236.28,282.56 236.54,282.00 236.92,282.00 C237.65,282.00 240.55,272.05 240.20,270.75 C240.09,270.34 240.41,270.00 240.92,270.00 C241.77,270.00 243.36,264.89 242.99,263.38 C242.90,263.02 243.24,262.45 243.73,262.11 C245.06,261.22 248.00,253.33 247.28,252.61 C246.94,252.28 247.22,252.00 247.89,252.00 C248.57,252.00 248.86,251.59 248.55,251.09 C248.24,250.58 248.33,250.02 248.74,249.84 C249.52,249.49 258.13,232.47 258.02,231.50 C257.99,231.20 258.87,229.99 259.98,228.79 C261.88,226.75 262.40,225.53 262.12,223.75 C262.05,223.34 262.48,223.00 263.06,223.00 C263.64,223.00 263.87,222.60 263.56,222.10 C263.26,221.61 263.75,220.93 264.65,220.58 C265.55,220.24 266.02,219.69 265.70,219.37 C265.38,219.05 265.98,217.87 267.03,216.74 C268.07,215.62 268.72,214.36 268.47,213.95 C268.22,213.54 268.71,212.94 269.57,212.61 C270.43,212.28 270.88,211.61 270.57,211.11 C270.26,210.62 270.71,209.94 271.57,209.61 C272.43,209.28 272.88,208.61 272.57,208.11 C272.26,207.62 272.75,206.93 273.65,206.58 C274.55,206.24 275.05,205.71 274.75,205.42 C274.46,205.13 275.51,203.47 277.08,201.75 C278.66,200.02 279.75,198.42 279.52,198.18 C279.28,197.95 280.08,196.92 281.29,195.91 C282.51,194.90 283.06,194.05 282.53,194.03 C281.99,194.01 282.56,193.29 283.79,192.43 C285.03,191.57 285.80,190.49 285.53,190.04 C285.25,189.59 286.15,188.47 287.54,187.57 C288.93,186.66 289.84,185.55 289.57,185.12 C289.30,184.68 290.42,183.32 292.07,182.11 C293.71,180.89 294.84,179.55 294.58,179.13 C294.32,178.70 296.80,175.98 300.11,173.07 C303.41,170.16 305.86,167.52 305.54,167.21 C304.76,166.42 311.08,160.00 312.64,160.00 C313.33,160.00 315.83,157.75 318.19,155.00 C320.56,152.25 323.05,150.00 323.72,150.00 C324.39,150.00 325.94,148.65 327.16,147.00 C328.38,145.35 329.95,144.00 330.65,144.00 C331.36,144.00 332.41,143.10 333.00,142.00 C333.59,140.90 334.68,140.00 335.43,140.00 C336.17,140.00 337.05,139.32 337.36,138.50 C337.68,137.68 338.58,137.00 339.36,137.00 C340.15,137.00 341.05,136.32 341.36,135.50 C341.68,134.68 342.63,134.00 343.47,134.00 C344.31,134.00 345.00,133.55 345.00,133.00 C345.00,132.45 345.67,132.00 346.50,132.00 C347.33,132.00 348.00,131.55 348.00,131.00 C348.00,130.45 348.67,130.00 349.50,130.00 C350.33,130.00 351.00,129.55 351.00,129.00 C351.00,128.45 351.67,128.00 352.50,128.00 C353.33,128.00 354.00,127.60 354.00,127.11 C354.00,126.62 355.02,125.96 356.27,125.65 C357.52,125.33 359.47,124.22 360.60,123.16 C361.73,122.11 363.63,120.93 364.83,120.55 C366.02,120.18 367.00,119.51 367.00,119.07 C367.00,118.63 369.02,117.50 371.50,116.55 C373.98,115.61 376.00,114.49 376.00,114.07 C376.00,113.65 377.69,112.61 379.75,111.76 C396.16,104.98 399.54,103.47 399.83,102.78 C400.02,102.35 401.25,102.00 402.58,102.00 C403.91,102.00 405.00,101.55 405.00,101.00 C405.00,100.45 405.79,100.00 406.75,100.00 C409.27,100.00 424.39,94.87 425.11,93.77 C425.44,93.26 426.34,92.96 427.11,93.11 C429.26,93.52 437.00,91.92 437.00,91.06 C437.00,90.65 438.24,90.26 439.75,90.21 C441.26,90.16 445.42,89.44 449.00,88.61 C455.98,86.98 473.08,84.35 484.48,83.03 C484.18,83.59 485.04,84.00 486.50,84.00 C487.99,84.00 488.85,83.57 488.50,83.00 C488.42,82.87 488.31,82.75 488.18,82.63 C489.63,82.49 490.92,82.38 492.00,82.31 C494.26,82.16 496.69,82.05 499.20,81.97 C498.88,82.01 498.65,82.05 498.50,82.09 C497.16,82.49 517.14,83.68 518.83,83.30 C519.56,83.13 521.36,82.97 522.83,82.93 ZM 587.75 866.72 L 582.50 869.44 L 517.50 869.61 C481.75,869.70 449.29,869.43 445.38,869.00 C438.14,868.21 422.70,862.27 420.39,859.39 C419.78,858.62 418.87,858.00 418.38,858.00 C417.89,858.00 416.92,857.10 416.23,856.00 C415.55,854.90 414.40,854.00 413.68,854.00 C412.11,854.00 406.74,848.59 407.53,847.81 C407.83,847.50 406.74,846.12 405.10,844.74 C403.45,843.35 402.35,841.98 402.64,841.69 C402.93,841.40 402.22,840.65 401.06,840.03 C399.90,839.41 399.20,838.49 399.51,837.99 C399.82,837.48 399.19,836.19 398.12,835.12 C397.05,834.05 396.43,832.90 396.75,832.58 C397.07,832.26 396.78,832.00 396.11,832.00 C395.43,832.00 395.16,831.55 395.50,830.99 C395.85,830.44 395.43,829.72 394.57,829.39 C393.71,829.06 393.26,828.39 393.56,827.90 C393.87,827.40 393.64,827.00 393.06,827.00 C392.48,827.00 392.10,826.66 392.21,826.25 C392.33,825.84 391.62,823.42 390.63,820.88 C389.54,818.08 388.97,814.55 389.20,811.88 L 389.56 807.50 L 510.18 807.00 L 630.80 806.50 L 632.86 809.50 C634.52,811.94 634.74,813.16 634.03,816.00 C632.13,823.58 630.91,826.80 629.19,828.78 C628.20,829.92 626.52,832.57 625.45,834.67 C624.38,836.78 622.94,838.86 622.25,839.30 C621.56,839.74 621.00,840.45 621.00,840.88 C621.00,842.02 606.63,856.41 605.72,856.18 C605.29,856.07 604.68,856.66 604.37,857.49 C604.05,858.32 603.16,859.00 602.39,859.00 C601.63,859.00 601.00,859.40 601.00,859.89 C601.00,860.38 599.88,861.07 598.50,861.41 C597.12,861.76 596.00,862.48 596.00,863.02 C596.00,863.56 595.32,864.00 594.50,864.00 C593.67,864.00 590.63,865.22 587.75,866.72 ZM 406.49 360.02 C406.62,359.81 406.49,359.64 406.12,359.52 C408.94,359.34 411.34,358.89 412.77,358.12 C416.49,356.13 423.65,348.03 425.06,344.21 C426.15,341.25 426.49,327.81 426.75,277.75 L 427.07 215.00 L 468.13 215.00 L 467.73 279.75 C467.30,350.00 467.17,351.80 461.56,363.33 C456.50,373.74 451.19,380.97 448.56,381.02 C447.98,381.03 446.44,382.15 445.15,383.52 C443.85,384.88 442.19,386.00 441.47,386.00 C440.74,386.00 439.50,386.64 438.72,387.43 C437.93,388.21 433.78,390.03 429.49,391.47 C423.49,393.49 419.13,394.18 410.59,394.49 C397.50,394.97 390.93,394.07 381.47,390.50 C377.64,389.05 373.60,387.59 372.50,387.25 C371.40,386.92 369.91,386.04 369.18,385.32 C368.45,384.59 367.21,384.00 366.43,384.00 C365.64,384.00 365.00,383.55 365.00,383.00 C365.00,382.45 364.33,382.00 363.50,382.00 C362.67,382.00 362.00,381.57 362.00,381.05 C362.00,380.53 360.76,379.52 359.25,378.79 C357.74,378.07 356.50,376.90 356.50,376.20 C356.50,375.50 356.05,374.61 355.50,374.21 C353.43,372.73 354.23,371.12 359.06,367.05 C361.79,364.74 363.81,362.50 363.54,362.06 C363.27,361.63 365.30,359.38 368.04,357.06 C370.78,354.75 372.79,352.46 372.49,351.98 C372.19,351.50 372.79,350.65 373.83,350.09 C375.34,349.28 376.26,349.66 378.53,352.03 C380.08,353.65 381.55,354.78 381.80,354.54 C382.04,354.29 382.89,354.74 383.68,355.54 C385.86,357.72 393.29,359.22 400.27,359.55 C395.11,360.08 394.94,361.00 400.77,361.00 C403.58,361.00 406.15,360.56 406.49,360.02 ZM 598.45 691.27 C600.34,691.75 608.25,691.92 621.75,691.77 L 645.50 691.50 L 621.96 691.77 L 598.42 692.04 ZM 402.22 692.00 C411.78,691.97 421.23,691.73 424.40,691.29 C422.17,691.85 416.37,692.00 402.22,692.00 Z" fill="rgb(20,68,81)"/>
<path d="M 534.00 532.28 L 534.00 667.00 L 488.00 667.00 L 488.00 532.08 L 481.85 523.29 C478.46,518.45 465.93,500.10 453.99,482.50 C442.06,464.90 427.23,443.30 421.04,434.50 C414.86,425.70 409.16,417.26 408.37,415.75 L 406.95 413.00 L 459.70 413.00 L 484.10 450.07 C486.06,453.04 487.88,455.80 489.56,458.36 C508.82,487.63 510.70,490.47 511.09,490.28 C511.17,490.25 511.19,490.09 511.27,490.00 C511.50,489.72 523.27,472.29 537.41,451.25 L 563.11 413.00 L 615.07 413.00 L 613.87 415.25 C613.21,416.49 608.08,424.02 602.48,432.00 C596.87,439.98 579.17,465.80 563.14,489.39 ZM 632.68 782.94 C630.75,783.67 592.85,783.99 511.68,783.96 C408.71,783.93 393.05,783.73 390.03,782.42 C385.46,780.43 383.19,778.29 380.89,773.79 C379.21,770.48 379.00,767.70 379.00,748.29 C379.01,728.28 379.17,726.23 381.00,723.23 C382.10,721.42 384.15,719.51 385.57,718.98 C389.06,717.65 633.94,717.65 637.43,718.98 C638.84,719.51 640.90,721.42 642.00,723.23 C643.83,726.24 643.99,728.28 644.00,748.80 C644.00,772.93 643.80,774.02 638.34,779.19 C636.78,780.66 634.23,782.35 632.68,782.94 ZM 601.02 393.93 C592.22,396.37 575.58,397.30 565.50,395.93 C531.89,391.33 511.45,374.70 503.78,345.70 C501.68,337.79 501.59,335.32 501.25,275.75 L 500.90 214.00 L 543.00 214.00 L 543.02 271.75 C543.03,318.41 543.31,330.82 544.49,336.36 C548.04,353.14 556.88,359.52 576.50,359.48 C584.75,359.46 587.37,359.06 591.50,357.18 C598.30,354.08 603.57,348.68 606.26,342.04 C608.48,336.54 608.50,336.07 608.79,275.25 L 609.09 214.00 L 651.08 214.00 L 650.76 276.75 C650.44,338.42 650.39,339.63 648.19,346.82 C644.21,359.85 639.56,367.71 630.63,376.51 C621.45,385.57 612.77,390.67 601.02,393.93 ZM 529.06 931.49 C522.47,933.19 507.88,934.21 502.50,933.35 C471.55,928.39 448.23,904.86 444.50,874.84 C443.80,869.21 443.77,869.18 439.64,868.14 C437.61,867.63 434.48,866.45 431.31,865.09 C436.29,866.99 441.82,868.62 445.38,869.00 C449.29,869.43 481.75,869.70 517.50,869.61 L 578.85 869.45 C578.17,870.10 577.89,871.66 577.48,875.25 C575.71,890.64 569.35,903.87 558.59,914.51 C550.58,922.43 539.54,928.79 529.06,931.49 ZM 420.69 859.71 C420.25,859.38 420.00,859.13 420.00,858.97 L 420.00 858.96 C420.14,859.09 420.27,859.24 420.39,859.39 C420.47,859.49 420.57,859.60 420.69,859.71 Z" fill="rgb(248,114,39)"/>
<path d="M 0.00 512.00 L 0.00 0.00 L 512.00 0.00 L 1024.00 0.00 L 1024.00 512.00 L 1024.00 1024.00 L 512.00 1024.00 L 0.00 1024.00 L 0.00 512.00 ZM 529.06 931.49 C539.54,928.79 550.58,922.43 558.59,914.51 C569.35,903.87 575.71,890.64 577.48,875.25 C578.12,869.68 578.44,869.00 580.41,869.00 C581.63,869.00 584.96,867.88 587.81,866.50 C590.66,865.12 593.67,864.00 594.50,864.00 C595.32,864.00 596.00,863.56 596.00,863.02 C596.00,862.48 597.12,861.76 598.50,861.41 C599.88,861.07 601.00,860.38 601.00,859.89 C601.00,859.40 601.63,859.00 602.39,859.00 C603.16,859.00 604.05,858.32 604.37,857.49 C604.68,856.66 605.29,856.07 605.72,856.18 C606.63,856.41 621.00,842.02 621.00,840.88 C621.00,840.45 621.56,839.74 622.25,839.30 C622.94,838.86 624.38,836.78 625.45,834.67 C626.52,832.57 628.20,829.92 629.19,828.78 C630.91,826.80 632.13,823.58 634.03,816.00 C634.74,813.16 634.52,811.94 632.86,809.50 L 630.80 806.50 L 510.18 807.00 L 389.56 807.50 L 389.20 811.88 C388.97,814.55 389.54,818.08 390.63,820.88 C391.62,823.42 392.33,825.84 392.21,826.25 C392.10,826.66 392.48,827.00 393.06,827.00 C393.64,827.00 393.87,827.40 393.56,827.90 C393.26,828.39 393.71,829.06 394.57,829.39 C395.43,829.72 395.85,830.44 395.50,830.99 C395.16,831.55 395.43,832.00 396.11,832.00 C396.78,832.00 397.07,832.26 396.75,832.58 C396.43,832.90 397.05,834.05 398.12,835.12 C399.19,836.19 399.82,837.48 399.51,837.99 C399.20,838.49 399.90,839.41 401.06,840.03 C402.22,840.65 402.93,841.40 402.64,841.69 C402.35,841.98 403.45,843.35 405.10,844.74 C406.74,846.12 407.83,847.50 407.53,847.81 C406.74,848.59 412.11,854.00 413.68,854.00 C414.40,854.00 415.55,854.90 416.23,856.00 C416.92,857.10 418.05,858.00 418.74,858.00 C419.43,858.00 420.00,858.44 420.00,858.97 C420.00,860.18 434.02,866.73 439.64,868.14 C443.77,869.18 443.80,869.21 444.50,874.84 C448.23,904.86 471.55,928.39 502.50,933.35 C507.88,934.21 522.47,933.19 529.06,931.49 ZM 632.68 782.94 C634.23,782.35 636.78,780.66 638.34,779.19 C643.80,774.02 644.00,772.93 644.00,748.80 C643.99,728.28 643.83,726.24 642.00,723.23 C640.90,721.42 638.84,719.51 637.43,718.98 C633.94,717.65 389.06,717.65 385.57,718.98 C384.15,719.51 382.10,721.42 381.00,723.23 C379.17,726.23 379.01,728.28 379.00,748.29 C379.00,767.70 379.21,770.48 380.89,773.79 C383.19,778.29 385.46,780.43 390.03,782.42 C393.05,783.73 408.71,783.93 511.68,783.96 C592.85,783.99 630.75,783.67 632.68,782.94 ZM 425.62 690.56 C426.38,688.56 423.24,638.18 421.41,623.29 C420.59,616.57 419.09,608.69 418.08,605.79 C415.82,599.27 411.76,590.62 410.75,590.17 C410.34,589.98 410.00,589.20 410.00,588.42 C410.00,587.64 409.55,587.00 409.00,587.00 C408.45,587.00 408.00,586.57 408.00,586.04 C408.00,585.13 392.04,568.68 391.00,568.52 C390.12,568.39 374.72,557.57 372.82,555.75 C371.82,554.79 370.99,554.34 370.97,554.75 C370.95,555.16 370.10,554.51 369.09,553.29 C368.08,552.08 367.00,551.33 366.71,551.63 C366.41,551.93 365.65,551.22 365.03,550.06 C364.41,548.90 363.49,548.19 363.00,548.50 C362.51,548.81 361.61,548.13 361.00,547.00 C360.39,545.87 359.51,545.19 359.03,545.48 C358.55,545.78 357.19,544.68 356.02,543.03 C354.85,541.38 353.56,540.14 353.16,540.27 C352.15,540.59 335.00,523.45 335.00,522.13 C335.00,521.54 333.65,520.06 332.00,518.84 C330.35,517.62 329.00,516.04 329.00,515.34 C329.00,514.63 327.88,513.31 326.50,512.41 C325.12,511.51 324.00,510.15 324.00,509.38 C324.00,508.62 323.54,508.00 322.98,508.00 C322.41,508.00 321.52,506.88 321.00,505.50 C320.48,504.12 319.64,503.00 319.14,503.00 C318.04,503.00 310.00,490.84 310.00,489.18 C310.00,488.53 309.56,488.00 309.02,488.00 C308.48,488.00 307.76,486.88 307.41,485.50 C307.07,484.12 306.41,483.00 305.96,483.00 C305.51,483.00 304.82,481.99 304.43,480.75 C304.05,479.51 303.39,478.27 302.97,478.00 C302.04,477.38 294.00,461.53 294.00,460.30 C294.00,459.82 293.10,457.66 292.00,455.50 C290.90,453.34 290.00,450.86 290.00,449.99 C290.00,449.11 289.61,447.97 289.13,447.45 C287.89,446.09 284.00,434.01 284.00,431.51 C284.00,430.35 283.57,428.97 283.05,428.45 C282.53,427.93 281.64,425.02 281.08,422.00 C280.52,418.98 279.14,412.00 278.02,406.50 C276.44,398.71 275.87,390.97 275.43,371.50 C274.80,343.37 275.45,337.33 282.41,306.52 C284.33,298.03 286.94,289.84 288.12,288.55 C288.61,288.03 289.00,286.97 289.00,286.20 C289.00,285.43 289.71,283.16 290.57,281.15 C291.44,279.14 292.72,276.15 293.42,274.50 C296.98,266.09 303.50,253.00 304.13,253.00 C304.52,253.00 305.36,251.43 306.00,249.50 C306.64,247.57 307.52,246.00 307.97,246.00 C308.42,246.00 309.07,244.88 309.41,243.50 C309.76,242.12 310.48,241.00 311.02,241.00 C311.56,241.00 312.00,240.32 312.00,239.50 C312.00,238.68 312.45,238.00 313.00,238.00 C313.55,238.00 314.00,237.32 314.00,236.50 C314.00,235.68 314.46,235.00 315.02,235.00 C315.59,235.00 316.52,233.77 317.08,232.28 C318.07,229.67 319.38,227.98 323.25,224.24 C324.21,223.31 325.00,222.00 325.00,221.31 C325.00,220.63 325.90,219.59 327.00,219.00 C328.10,218.41 329.00,217.30 329.00,216.53 C329.00,215.76 330.35,214.17 332.00,213.00 C333.65,211.83 335.00,210.30 335.00,209.61 C335.00,208.44 348.40,195.29 355.79,189.21 C357.60,187.72 360.13,185.49 361.41,184.25 C362.68,183.01 364.19,182.00 364.76,182.00 C365.32,182.00 366.05,181.32 366.36,180.50 C366.68,179.68 367.58,179.00 368.36,179.00 C369.15,179.00 370.05,178.32 370.36,177.50 C370.68,176.68 371.63,176.00 372.47,176.00 C373.31,176.00 374.00,175.55 374.00,175.00 C374.00,174.45 374.45,174.00 375.00,174.00 C375.55,174.00 376.90,173.10 378.00,172.00 C379.10,170.90 380.67,170.00 381.50,170.00 C382.33,170.00 383.00,169.55 383.00,169.00 C383.00,168.45 383.67,168.00 384.50,168.00 C385.33,168.00 386.00,167.56 386.00,167.02 C386.00,166.48 387.12,165.76 388.50,165.41 C389.88,165.07 391.00,164.44 391.00,164.03 C391.00,163.61 393.02,162.50 395.50,161.55 C397.98,160.61 400.00,159.50 400.00,159.10 C400.00,158.45 406.50,155.28 415.50,151.53 C417.15,150.84 419.62,149.81 421.00,149.24 C422.38,148.67 425.08,147.53 427.00,146.71 C432.83,144.22 445.05,140.79 463.50,136.46 C476.32,133.46 500.58,131.75 522.00,132.34 C542.18,132.89 552.87,134.36 569.00,138.77 C570.92,139.29 574.97,140.29 578.00,140.99 C581.03,141.69 583.95,142.60 584.50,143.02 C585.05,143.45 588.76,144.76 592.74,145.94 C596.73,147.12 602.80,149.57 606.24,151.38 C609.68,153.20 613.65,154.97 615.07,155.32 C616.48,155.66 618.66,156.84 619.92,157.93 C621.18,159.02 623.73,160.42 625.60,161.03 C627.47,161.65 629.00,162.54 629.00,163.00 C629.00,163.46 630.58,164.36 632.50,165.00 C634.42,165.64 636.00,166.57 636.00,167.08 C636.00,167.58 636.67,168.00 637.50,168.00 C638.33,168.00 639.00,168.45 639.00,169.00 C639.00,169.55 639.67,170.00 640.50,170.00 C641.33,170.00 642.00,170.45 642.00,171.00 C642.00,171.55 642.67,172.00 643.50,172.00 C644.33,172.00 645.90,172.90 647.00,174.00 C648.10,175.10 649.40,176.00 649.89,176.00 C650.38,176.00 651.05,176.68 651.36,177.50 C651.68,178.32 652.58,179.00 653.36,179.00 C654.15,179.00 655.05,179.68 655.36,180.50 C655.68,181.32 656.61,182.00 657.43,182.00 C658.26,182.00 659.41,182.90 660.00,184.00 C660.59,185.10 661.68,186.00 662.42,186.00 C663.16,186.00 664.51,187.12 665.41,188.50 C666.31,189.88 667.49,191.00 668.03,191.00 C669.25,191.00 690.52,212.25 690.24,213.19 C690.13,213.58 691.38,214.85 693.03,216.02 C694.68,217.19 695.80,218.52 695.52,218.97 C695.24,219.41 696.15,220.53 697.54,221.43 C698.93,222.34 699.81,223.50 699.50,223.99 C699.20,224.49 699.87,225.39 701.00,226.00 C702.13,226.61 702.81,227.51 702.50,228.00 C702.19,228.49 702.87,229.39 704.00,230.00 C705.13,230.61 705.79,231.53 705.47,232.05 C705.15,232.57 705.30,233.00 705.81,233.00 C706.93,233.00 712.35,240.99 711.26,241.03 C710.84,241.05 711.30,241.52 712.27,242.09 C713.25,242.66 713.81,243.50 713.53,243.96 C713.24,244.42 713.71,245.06 714.57,245.39 C715.43,245.72 715.85,246.44 715.50,246.99 C715.16,247.55 715.43,248.00 716.11,248.00 C716.78,248.00 717.06,248.27 716.73,248.61 C716.39,248.94 716.98,250.13 718.03,251.26 C719.07,252.38 719.69,253.68 719.41,254.15 C719.12,254.62 719.39,255.00 720.00,255.00 C720.61,255.00 720.84,255.45 720.50,256.00 C720.16,256.55 720.39,257.00 721.00,257.00 C721.61,257.00 721.84,257.45 721.50,258.00 C721.16,258.55 721.28,259.00 721.77,259.00 C722.77,259.00 727.64,268.95 727.25,270.20 C727.11,270.64 727.48,271.00 728.06,271.00 C728.64,271.00 728.84,271.45 728.50,272.00 C728.16,272.55 728.31,273.00 728.83,273.00 C729.71,273.00 730.97,276.32 730.87,278.39 C730.85,278.88 731.27,279.55 731.80,279.89 C733.17,280.75 739.13,297.98 738.44,299.09 C738.14,299.59 738.28,300.00 738.77,300.00 C739.72,300.00 744.66,320.36 745.57,328.00 C745.87,330.48 746.31,333.85 746.55,335.50 C748.48,348.63 749.08,374.21 747.80,388.51 C746.84,399.30 743.90,415.43 742.76,416.14 C742.20,416.49 742.01,417.21 742.34,417.74 C743.14,419.03 738.21,437.25 736.83,438.10 C736.23,438.47 736.01,439.21 736.35,439.75 C737.01,440.83 734.09,449.14 732.70,450.11 C732.22,450.45 731.87,451.01 731.91,451.36 C732.22,453.64 731.81,455.05 730.43,456.43 C729.56,457.29 729.12,458.00 729.44,458.00 C730.29,458.00 722.92,472.44 721.87,472.84 C721.38,473.02 721.24,473.58 721.55,474.09 C721.86,474.59 721.61,475.00 721.00,475.00 C720.39,475.00 720.16,475.45 720.50,476.00 C720.84,476.55 720.57,477.00 719.89,477.00 C719.22,477.00 718.95,477.29 719.31,477.64 C720.08,478.41 716.93,484.00 715.73,484.00 C715.26,484.00 715.12,484.38 715.41,484.85 C715.69,485.32 715.03,486.67 713.93,487.85 C712.82,489.03 712.28,490.01 712.71,490.03 C713.14,490.05 712.63,490.72 711.56,491.53 C710.49,492.34 709.93,493.00 710.32,493.00 C710.70,493.00 709.38,495.48 707.37,498.50 C705.36,501.52 703.30,504.00 702.80,504.00 C702.29,504.00 702.14,504.42 702.46,504.93 C702.77,505.44 702.13,506.50 701.02,507.27 C699.92,508.05 699.27,508.94 699.59,509.26 C699.91,509.58 699.01,510.60 697.60,511.53 C696.18,512.46 695.24,513.59 695.52,514.03 C695.80,514.48 694.68,515.81 693.03,516.98 C691.38,518.15 690.13,519.42 690.25,519.81 C690.53,520.72 670.18,541.00 668.99,541.00 C668.48,541.00 667.59,541.90 667.00,543.00 C666.41,544.10 665.32,545.00 664.58,545.00 C663.84,545.00 662.56,546.02 661.75,547.26 C660.94,548.50 659.00,550.19 657.44,551.01 C655.88,551.83 653.50,553.51 652.16,554.75 C650.81,555.99 649.10,557.00 648.35,557.00 C647.61,557.00 647.00,557.45 647.00,558.00 C647.00,558.55 646.33,559.00 645.50,559.00 C644.67,559.00 644.00,559.46 644.00,560.02 C644.00,560.58 642.76,561.59 641.25,562.25 C639.74,562.91 638.14,564.03 637.70,564.73 C637.26,565.43 636.30,566.00 635.56,566.00 C634.82,566.00 633.95,566.67 633.64,567.50 C633.32,568.33 632.64,569.00 632.11,569.00 C631.59,569.00 627.62,572.60 623.30,577.00 C618.98,581.40 615.59,585.00 615.77,585.00 C616.31,585.00 610.57,592.47 609.74,592.84 C609.33,593.02 609.24,593.58 609.55,594.09 C609.86,594.59 609.61,595.00 609.00,595.00 C608.39,595.00 608.16,595.45 608.50,596.00 C608.84,596.55 608.74,597.00 608.27,597.00 C607.81,597.00 607.35,597.97 607.26,599.16 C607.17,600.35 606.74,601.59 606.30,601.91 C605.86,602.23 605.41,603.17 605.31,604.00 C605.20,604.83 604.40,609.33 603.52,614.00 C602.64,618.67 601.72,626.33 601.47,631.00 C601.22,635.67 600.78,643.55 600.48,648.50 C599.53,664.50 599.09,673.31 598.75,682.77 L 598.42 692.04 L 621.96 691.77 L 645.50 691.50 L 646.07 680.50 C647.52,652.45 649.24,633.04 650.72,628.00 C652.71,621.25 655.85,614.00 656.80,613.99 C657.18,613.99 658.27,612.64 659.20,610.99 C660.14,609.35 661.55,608.00 662.35,608.00 C663.14,608.00 664.05,607.33 664.36,606.50 C664.68,605.67 665.63,605.00 666.47,605.00 C667.31,605.00 668.00,604.58 668.00,604.08 C668.00,603.57 669.61,602.62 671.57,601.98 C673.53,601.33 675.38,600.17 675.68,599.40 C675.97,598.63 676.84,598.00 677.61,598.00 C678.37,598.00 679.00,597.55 679.00,597.00 C679.00,596.45 679.67,596.00 680.50,596.00 C681.33,596.00 682.00,595.55 682.00,595.00 C682.00,594.45 682.69,594.00 683.53,594.00 C684.37,594.00 685.32,593.33 685.64,592.50 C685.95,591.67 686.83,591.00 687.57,591.00 C688.32,591.00 689.41,590.10 690.00,589.00 C690.59,587.90 691.68,587.00 692.42,587.00 C693.16,587.00 694.51,585.88 695.41,584.50 C696.31,583.12 697.60,582.00 698.27,582.00 C698.95,582.00 700.76,580.42 702.29,578.50 C703.83,576.58 705.53,575.00 706.06,575.00 C706.60,575.00 711.71,570.16 717.43,564.25 C723.14,558.34 729.21,552.08 730.91,550.34 C732.61,548.60 734.00,546.69 734.00,546.11 C734.00,545.52 735.12,544.31 736.50,543.41 C737.88,542.51 739.00,541.13 739.00,540.35 C739.00,539.57 739.67,538.68 740.50,538.36 C741.33,538.05 742.00,537.15 742.00,536.36 C742.00,535.58 742.67,534.68 743.50,534.36 C744.33,534.05 745.00,533.16 745.00,532.39 C745.00,531.63 745.46,531.00 746.02,531.00 C746.59,531.00 747.49,529.84 748.03,528.42 C749.00,525.86 754.75,516.95 756.05,516.00 C756.42,515.72 757.05,514.49 757.43,513.25 C757.82,512.01 758.55,511.00 759.07,511.00 C759.58,511.00 760.00,510.36 760.00,509.57 C760.00,508.79 760.68,507.46 761.51,506.63 C762.34,505.80 763.86,503.18 764.89,500.81 C765.91,498.44 768.99,491.77 771.72,486.00 C774.45,480.23 777.73,472.58 779.01,469.00 C780.28,465.42 781.64,462.05 782.02,461.50 C782.40,460.95 783.97,456.00 785.51,450.50 C787.05,445.00 788.64,439.83 789.05,439.00 C790.31,436.45 792.12,427.09 796.10,402.50 C797.96,390.98 798.37,384.43 798.42,365.50 C798.45,351.68 797.99,339.91 797.27,336.00 C796.61,332.42 795.37,325.00 794.52,319.50 C792.31,305.33 785.22,277.59 782.00,270.50 C780.50,267.20 778.95,263.38 778.54,262.00 C778.14,260.62 776.06,255.76 773.91,251.19 C771.76,246.62 770.00,242.48 770.00,241.98 C770.00,240.50 766.69,234.00 765.94,234.00 C765.56,234.00 764.24,231.67 763.02,228.83 C761.80,225.98 760.17,223.02 759.40,222.25 C758.63,221.49 758.00,220.21 758.00,219.43 C758.00,218.64 757.56,218.00 757.02,218.00 C756.48,218.00 755.76,216.88 755.41,215.50 C755.07,214.12 754.49,213.00 754.14,213.00 C753.78,213.00 752.93,211.73 752.24,210.19 C751.56,208.64 750.10,206.41 749.00,205.23 C747.90,204.05 747.00,202.61 747.00,202.04 C747.00,201.47 746.55,201.00 746.00,201.00 C745.45,201.00 745.00,200.31 745.00,199.47 C745.00,198.63 744.33,197.68 743.50,197.36 C742.67,197.05 742.00,196.21 742.00,195.50 C742.00,194.79 741.33,193.95 740.50,193.64 C739.67,193.32 739.00,192.47 739.00,191.75 C739.00,191.03 738.21,189.68 737.25,188.75 C736.29,187.82 734.38,185.67 733.00,183.97 C731.62,182.27 728.59,179.04 726.25,176.79 C723.91,174.54 722.00,172.19 722.00,171.56 C722.00,170.09 710.56,158.77 709.82,159.52 C709.50,159.83 707.34,157.93 705.00,155.29 C702.67,152.66 700.38,150.61 699.90,150.74 C699.43,150.88 698.07,149.66 696.86,148.03 C695.66,146.41 694.32,145.30 693.88,145.57 C693.45,145.84 692.34,144.93 691.43,143.54 C690.53,142.15 689.40,141.25 688.94,141.54 C688.48,141.82 687.61,141.13 687.00,140.00 C686.39,138.87 685.49,138.19 685.00,138.50 C684.51,138.81 683.61,138.13 683.00,137.00 C682.39,135.87 681.47,135.21 680.94,135.54 C680.42,135.86 679.72,135.43 679.39,134.57 C679.06,133.71 678.38,133.26 677.89,133.57 C677.39,133.88 676.72,133.43 676.39,132.57 C676.06,131.71 675.38,131.26 674.89,131.57 C674.39,131.88 673.72,131.43 673.39,130.57 C673.06,129.71 672.38,129.26 671.89,129.57 C671.39,129.88 670.72,129.43 670.39,128.57 C670.06,127.71 669.38,127.26 668.89,127.57 C668.39,127.88 667.72,127.43 667.39,126.57 C667.06,125.71 666.46,125.22 666.05,125.47 C665.64,125.72 664.23,124.93 662.92,123.72 C661.62,122.50 660.31,121.62 660.02,121.76 C659.74,121.90 658.75,121.37 657.83,120.59 C656.92,119.81 655.91,119.43 655.58,119.75 C655.26,120.07 655.00,119.73 655.00,119.00 C655.00,118.27 654.72,117.95 654.37,118.30 C653.70,118.97 644.73,114.12 644.16,112.78 C643.98,112.34 643.42,112.24 642.91,112.55 C642.41,112.86 642.00,112.64 642.00,112.06 C642.00,111.48 641.66,111.10 641.25,111.23 C640.18,111.55 629.00,106.76 629.00,105.98 C629.00,105.63 628.38,105.33 627.62,105.33 C626.11,105.33 614.80,100.96 614.00,100.06 C613.72,99.75 613.05,99.49 612.50,99.47 C611.06,99.42 599.59,95.65 599.00,95.03 C598.72,94.74 597.39,94.38 596.04,94.23 C594.69,94.07 593.28,93.45 592.91,92.85 C592.53,92.24 591.83,91.99 591.34,92.29 C590.86,92.59 585.29,91.58 578.98,90.06 C572.67,88.53 563.67,86.72 559.00,86.03 C554.33,85.35 549.53,84.33 548.35,83.77 C547.16,83.22 545.79,83.01 545.31,83.31 C544.82,83.61 539.49,83.39 533.46,82.81 C521.91,81.71 504.55,81.50 492.00,82.31 C482.79,82.90 457.81,86.56 449.00,88.61 C445.42,89.44 441.26,90.16 439.75,90.21 C438.24,90.26 437.00,90.65 437.00,91.06 C437.00,91.92 429.26,93.52 427.11,93.11 C426.34,92.96 425.44,93.26 425.11,93.77 C424.39,94.87 409.27,100.00 406.75,100.00 C405.79,100.00 405.00,100.45 405.00,101.00 C405.00,101.55 403.91,102.00 402.58,102.00 C401.25,102.00 400.02,102.35 399.83,102.78 C399.54,103.47 396.16,104.98 379.75,111.76 C377.69,112.61 376.00,113.65 376.00,114.07 C376.00,114.49 373.98,115.61 371.50,116.55 C369.02,117.50 367.00,118.63 367.00,119.07 C367.00,119.51 366.02,120.18 364.83,120.55 C363.63,120.93 361.73,122.11 360.60,123.16 C359.47,124.22 357.52,125.33 356.27,125.65 C355.02,125.96 354.00,126.62 354.00,127.11 C354.00,127.60 353.33,128.00 352.50,128.00 C351.67,128.00 351.00,128.45 351.00,129.00 C351.00,129.55 350.33,130.00 349.50,130.00 C348.67,130.00 348.00,130.45 348.00,131.00 C348.00,131.55 347.33,132.00 346.50,132.00 C345.67,132.00 345.00,132.45 345.00,133.00 C345.00,133.55 344.31,134.00 343.47,134.00 C342.63,134.00 341.68,134.68 341.36,135.50 C341.05,136.32 340.15,137.00 339.36,137.00 C338.58,137.00 337.68,137.68 337.36,138.50 C337.05,139.32 336.17,140.00 335.43,140.00 C334.68,140.00 333.59,140.90 333.00,142.00 C332.41,143.10 331.36,144.00 330.65,144.00 C329.95,144.00 328.38,145.35 327.16,147.00 C325.94,148.65 324.39,150.00 323.72,150.00 C323.05,150.00 320.56,152.25 318.19,155.00 C315.83,157.75 313.33,160.00 312.64,160.00 C311.08,160.00 304.76,166.42 305.54,167.21 C305.86,167.52 303.41,170.16 300.11,173.07 C296.80,175.98 294.32,178.70 294.58,179.13 C294.84,179.55 293.71,180.89 292.07,182.11 C290.42,183.32 289.30,184.68 289.57,185.12 C289.84,185.55 288.93,186.66 287.54,187.57 C286.15,188.47 285.25,189.59 285.53,190.04 C285.80,190.49 285.03,191.57 283.79,192.43 C282.56,193.29 281.99,194.01 282.53,194.03 C283.06,194.05 282.51,194.90 281.29,195.91 C280.08,196.92 279.28,197.95 279.52,198.18 C279.75,198.42 278.66,200.02 277.08,201.75 C275.51,203.47 274.46,205.13 274.75,205.42 C275.05,205.71 274.55,206.24 273.65,206.58 C272.75,206.93 272.26,207.62 272.57,208.11 C272.88,208.61 272.43,209.28 271.57,209.61 C270.71,209.94 270.26,210.62 270.57,211.11 C270.88,211.61 270.43,212.28 269.57,212.61 C268.71,212.94 268.22,213.54 268.47,213.95 C268.72,214.36 268.07,215.62 267.03,216.74 C265.98,217.87 265.38,219.05 265.70,219.37 C266.02,219.69 265.55,220.24 264.65,220.58 C263.75,220.93 263.26,221.61 263.56,222.10 C263.87,222.60 263.64,223.00 263.06,223.00 C262.48,223.00 262.05,223.34 262.12,223.75 C262.40,225.53 261.88,226.75 259.98,228.79 C258.87,229.99 257.99,231.20 258.02,231.50 C258.13,232.47 249.52,249.49 248.74,249.84 C248.33,250.02 248.24,250.58 248.55,251.09 C248.86,251.59 248.57,252.00 247.89,252.00 C247.22,252.00 246.94,252.28 247.28,252.61 C248.00,253.33 245.06,261.22 243.73,262.11 C243.24,262.45 242.90,263.02 242.99,263.38 C243.36,264.89 241.77,270.00 240.92,270.00 C240.41,270.00 240.09,270.34 240.20,270.75 C240.55,272.05 237.65,282.00 236.92,282.00 C236.54,282.00 236.28,282.56 236.36,283.25 C236.60,285.44 231.73,303.47 230.72,304.14 C230.18,304.49 230.00,305.19 230.31,305.69 C230.62,306.20 230.48,308.38 230.00,310.55 C224.75,334.30 223.54,363.93 226.46,397.00 C227.64,410.34 232.84,434.28 238.28,451.50 C240.02,457.00 241.40,462.06 241.33,462.75 C241.27,463.44 241.59,464.00 242.03,464.00 C242.80,464.00 244.34,469.21 243.99,470.62 C243.90,470.98 244.27,471.55 244.81,471.89 C245.36,472.22 245.96,473.40 246.15,474.50 C246.34,475.60 247.06,477.09 247.75,477.82 C248.88,479.01 249.44,481.23 249.12,483.25 C249.05,483.66 249.48,484.00 250.06,484.00 C250.64,484.00 250.84,484.45 250.50,485.00 C250.16,485.55 250.39,486.00 251.00,486.00 C251.61,486.00 251.84,486.45 251.50,487.00 C251.16,487.55 251.28,488.00 251.77,488.00 C252.77,488.00 257.64,497.95 257.25,499.20 C257.11,499.64 257.48,500.00 258.06,500.00 C258.64,500.00 258.84,500.45 258.50,501.00 C258.16,501.55 258.43,502.00 259.11,502.00 C259.78,502.00 260.06,502.27 259.73,502.61 C259.39,502.94 259.98,504.13 261.03,505.26 C262.07,506.38 262.69,507.68 262.41,508.15 C262.12,508.62 262.39,509.00 263.00,509.00 C263.61,509.00 263.87,509.40 263.56,509.90 C263.26,510.39 263.71,511.06 264.57,511.39 C265.43,511.72 265.85,512.44 265.50,512.99 C265.16,513.55 265.43,514.00 266.11,514.00 C266.78,514.00 267.08,514.25 266.77,514.56 C266.46,514.87 267.28,516.28 268.59,517.69 C269.89,519.10 270.75,520.60 270.49,521.02 C270.23,521.44 270.71,522.06 271.57,522.39 C272.43,522.72 272.88,523.39 272.57,523.89 C272.26,524.38 272.71,525.06 273.57,525.39 C274.43,525.72 274.88,526.39 274.57,526.89 C274.26,527.38 274.71,528.06 275.57,528.39 C276.43,528.72 276.86,529.42 276.54,529.94 C276.21,530.47 276.87,531.39 278.00,532.00 C279.13,532.61 279.81,533.51 279.50,534.00 C279.19,534.49 279.87,535.39 281.00,536.00 C282.13,536.61 282.82,537.48 282.54,537.94 C282.25,538.40 283.15,539.53 284.54,540.43 C285.93,541.34 286.84,542.45 286.57,542.88 C286.30,543.32 287.41,544.66 289.03,545.86 C290.66,547.07 291.88,548.43 291.74,548.90 C291.61,549.38 293.66,551.67 296.29,554.00 C298.93,556.34 300.83,558.50 300.51,558.82 C299.74,559.59 313.13,573.00 314.67,573.00 C315.35,573.00 317.59,575.03 319.66,577.50 C321.73,579.97 323.99,582.00 324.69,582.00 C325.38,582.00 326.69,583.12 327.59,584.50 C328.49,585.88 329.87,587.00 330.65,587.00 C331.43,587.00 332.32,587.67 332.64,588.50 C332.95,589.33 333.83,590.00 334.57,590.00 C335.32,590.00 336.41,590.90 337.00,592.00 C337.59,593.10 338.73,594.00 339.54,594.00 C340.34,594.00 341.00,594.45 341.00,595.00 C341.00,595.55 341.67,596.00 342.50,596.00 C343.33,596.00 344.00,596.45 344.00,597.00 C344.00,597.55 344.67,598.00 345.50,598.00 C346.33,598.00 347.00,598.45 347.00,599.00 C347.00,599.55 347.67,600.00 348.50,600.00 C349.33,600.00 350.00,600.40 350.00,600.89 C350.00,601.38 351.12,602.07 352.50,602.41 C353.88,602.76 355.00,603.48 355.00,604.02 C355.00,604.56 355.63,605.00 356.39,605.00 C357.16,605.00 358.05,605.67 358.36,606.50 C358.68,607.33 359.56,608.00 360.31,608.00 C361.07,608.00 362.50,608.90 363.50,610.00 C364.50,611.10 364.98,612.00 364.58,612.00 C364.18,612.00 365.19,613.35 366.84,614.99 C370.78,618.93 374.12,629.18 374.62,638.84 C375.03,646.87 375.63,655.44 376.57,666.75 C377.17,673.96 377.83,684.74 377.93,689.25 L 378.00 692.00 L 401.53 692.00 C421.10,692.00 425.16,691.76 425.62,690.56 ZM 534.00 599.64 L 534.00 532.28 L 563.14 489.39 C579.17,465.80 596.87,439.98 602.48,432.00 C608.08,424.02 613.21,416.49 613.87,415.25 L 615.07 413.00 L 589.09 413.00 L 563.11 413.00 L 537.41 451.25 C523.27,472.29 511.50,489.72 511.27,490.00 C510.73,490.62 512.86,493.75 484.10,450.07 L 459.70 413.00 L 433.33 413.00 L 406.95 413.00 L 408.37 415.75 C409.16,417.26 414.86,425.70 421.04,434.50 C427.23,443.30 442.06,464.90 453.99,482.50 C465.93,500.10 478.46,518.45 481.85,523.29 L 488.00 532.08 L 488.00 599.54 L 488.00 667.00 L 511.00 667.00 L 534.00 667.00 L 534.00 599.64 ZM 601.02 393.93 C612.77,390.67 621.45,385.57 630.63,376.51 C639.56,367.71 644.21,359.85 648.19,346.82 C650.39,339.63 650.44,338.42 650.76,276.75 L 651.08 214.00 L 630.09 214.00 L 609.09 214.00 L 608.79 275.25 C608.50,336.07 608.48,336.54 606.26,342.04 C603.57,348.68 598.30,354.08 591.50,357.18 C587.37,359.06 584.75,359.46 576.50,359.48 C556.88,359.52 548.04,353.14 544.49,336.36 C543.31,330.82 543.03,318.41 543.02,271.75 L 543.00 214.00 L 521.95 214.00 L 500.90 214.00 L 501.25 275.75 C501.59,335.32 501.68,337.79 503.78,345.70 C511.45,374.70 531.89,391.33 565.50,395.93 C575.58,397.30 592.22,396.37 601.02,393.93 ZM 429.49 391.47 C433.78,390.03 437.93,388.21 438.72,387.43 C439.50,386.64 440.74,386.00 441.47,386.00 C442.19,386.00 443.85,384.88 445.15,383.52 C446.44,382.15 447.98,381.03 448.56,381.02 C451.19,380.97 456.50,373.74 461.56,363.33 C467.17,351.80 467.30,350.00 467.73,279.75 L 468.13 215.00 L 447.60 215.00 L 427.07 215.00 L 426.75 277.75 C426.49,327.81 426.15,341.25 425.06,344.21 C423.65,348.03 416.49,356.13 412.77,358.12 C407.23,361.09 387.48,359.34 383.68,355.54 C382.89,354.74 382.04,354.29 381.80,354.54 C381.55,354.78 380.08,353.65 378.53,352.03 C376.26,349.66 375.34,349.28 373.83,350.09 C372.79,350.65 372.19,351.50 372.49,351.98 C372.79,352.46 370.78,354.75 368.04,357.06 C365.30,359.38 363.27,361.63 363.54,362.06 C363.81,362.50 361.79,364.74 359.06,367.05 C354.23,371.12 353.43,372.73 355.50,374.21 C356.05,374.61 356.50,375.50 356.50,376.20 C356.50,376.90 357.74,378.07 359.25,378.79 C360.76,379.52 362.00,380.53 362.00,381.05 C362.00,381.57 362.67,382.00 363.50,382.00 C364.33,382.00 365.00,382.45 365.00,383.00 C365.00,383.55 365.64,384.00 366.43,384.00 C367.21,384.00 368.45,384.59 369.18,385.32 C369.91,386.04 371.40,386.92 372.50,387.25 C373.60,387.59 377.64,389.05 381.47,390.50 C390.93,394.07 397.50,394.97 410.59,394.49 C419.13,394.18 423.49,393.49 429.49,391.47 Z" fill="rgb(254,254,254)"/>
</g>
</svg>